<?xml version="1.0" encoding="utf-8"?>
<!-- Generator: Adobe Illustrator 23.0.2, SVG Export Plug-In . SVG Version: 6.00 Build 0)  -->
<svg version="1.1" id="Layer_1" xmlns="http://www.w3.org/2000/svg" xmlns:xlink="http://www.w3.org/1999/xlink" x="0px" y="0px"
	 viewBox="0 0 264.93 41.67" style="enable-background:new 0 0 264.93 41.67;" xml:space="preserve">
<style type="text/css">
	.st0{fill:#98B6EC;}
	.st1{fill:#F4F4F4;}
</style>
<g>
	<g>
		<path class="st0" d="M55.84,0h8.1L48.78,41.67h-6.02L31.94,12.09L21.12,41.67h-5.96L0,0h8.1l10.07,27.49L28.24,0h7.47l10.07,27.49
			L55.84,0z"/>
		<path class="st0" d="M75.11,0h25.58c2.2,0,4.09,0.78,5.67,2.34s2.37,3.46,2.37,5.7v25.58c0,2.24-0.79,4.14-2.37,5.7
			s-3.47,2.34-5.67,2.34H75.11c-2.24,0-4.14-0.78-5.7-2.34s-2.34-3.46-2.34-5.7V8.04c0-2.24,0.78-4.14,2.34-5.7S72.88,0,75.11,0z
			 M75.11,34.03h25.58c0.23,0,0.35-0.13,0.35-0.41V8.04c0-0.27-0.12-0.41-0.35-0.41H75.11c-0.27,0-0.41,0.14-0.41,0.41v25.58
			C74.71,33.89,74.84,34.03,75.11,34.03z"/>
		<path class="st0" d="M156.71,8.1v11.23c0,2.2-0.79,4.09-2.37,5.67s-3.49,2.37-5.73,2.37h-2.26l10.36,12.33v1.97h-8.33
			l-12.04-14.29h-13.48h-0.17v14.29h-7.64V0.06h33.56c2.24,0,4.15,0.79,5.73,2.37C155.92,4.01,156.71,5.9,156.71,8.1z M123.09,19.73
			h25.52c0.27,0,0.41-0.13,0.41-0.41V8.1c0-0.27-0.14-0.41-0.41-0.41h-25.52c-0.27,0-0.4,0.14-0.4,0.41v11.23
			C122.68,19.6,122.82,19.73,123.09,19.73z"/>
		<path class="st0" d="M194.67,0h8.39v2.03l-15.74,18.81l15.74,18.81v2.03h-8.39l-14.24-17.01h-9.84v17.01h-7.7V0h7.7v17.01h9.84
			L194.67,0z"/>
	</g>
	<g>
		<path class="st1" d="M212.68,41.67V0h7.64v41.67H212.68z"/>
		<path class="st1" d="M223.27,0h41.67v7.64h-16.96v34.03h-7.7V7.64h-17.01L223.27,0L223.27,0z"/>
	</g>
</g>
</svg>
